<svg width="73" height="32" viewBox="0 0 73 32" fill="none" xmlns="http://www.w3.org/2000/svg">
<g clip-path="url(#clip0_11_10126)">
<path d="M31.0488 11.1674C34.4775 2.75999 28.0626 0.474609 23.8966 0.474609H10.0714C10.4738 0.727338 10.7698 1.11757 10.9039 1.57213C11.0379 2.02668 11.0008 2.51431 10.7996 2.94357L2.74409 28.5694C2.55135 29.0677 2.26045 29.5226 1.88847 29.9073C1.51649 30.2918 1.07094 30.5984 0.578125 30.8089H11.7581C11.3148 30.675 10.9424 30.3725 10.7216 29.967C10.5007 29.5617 10.4493 29.0859 10.5784 28.6429L13.5001 19.3726C13.5001 19.3726 26.9658 21.2084 31.012 11.1674H31.0488ZM20.1822 2.83341C21.6478 2.83341 25.7124 3.03535 23.0763 10.6717C20.3113 18.6936 14.2558 17.0414 14.2558 17.0414L18.7261 2.83341H20.173H20.1822Z" fill="#B7BFC7"/>
<path d="M39.9982 30.827H47.5283C44.7659 29.8162 42.252 28.2296 40.1548 26.1736C41.8174 24.5993 42.8242 22.4598 42.9752 20.18H39.0764C39.3026 20.3244 39.4892 20.5225 39.6194 20.7564C39.7498 20.9902 39.8198 21.2527 39.823 21.5202C39.7948 22.5442 39.4433 23.5333 38.8183 24.3472C37.3983 22.4539 36.4506 20.2519 36.0533 17.9222C37.9793 17.1433 39.7926 16.1124 41.4453 14.8567C42.024 14.4224 42.5034 13.8704 42.8514 13.2374C43.1994 12.6045 43.4082 11.905 43.4636 11.1854V11.0752C43.466 10.6257 43.3773 10.1804 43.2031 9.7657C43.029 9.35096 42.7728 8.97539 42.4498 8.66139C41.8084 8.08883 41.0381 7.67826 40.2041 7.46421C39.37 7.25017 38.4964 7.23892 37.6571 7.43146C36.3883 7.68382 35.2072 8.25936 34.2285 9.1019C31.9611 11.2313 31.6754 14.7283 31.6754 16.3161V17.1604L31.3159 17.3073C29.6568 17.9222 25.2236 19.0878 23.6475 22.7225C23.32 23.5559 23.1543 24.4434 23.1591 25.3383C23.1396 26.4416 23.437 27.5275 24.0163 28.4681C25.1314 30.212 27.0301 31.3134 30.0625 31.2217C33.3621 31.1666 36.6156 28.927 37.187 28.4681C38.0252 29.3249 38.952 30.091 39.9521 30.7536L39.9982 30.827ZM39.9982 10.5521C39.6111 12.9935 36.4313 15.4625 35.657 15.793C35.4202 13.9516 35.799 12.0839 36.7354 10.4787C37.4911 9.30383 38.5143 8.78989 39.3344 9.08357C39.9982 9.31299 40.0627 9.9096 40.0074 10.5521H39.9982ZM35.611 26.8894C34.4317 27.5658 33.1334 28.0112 31.786 28.2019C30.2652 28.3487 27.7399 27.7614 27.7583 24.7325C27.7583 22.1444 30.5786 20.2536 32.1179 19.5927C32.8156 22.2222 34.0036 24.6974 35.6203 26.8894H35.611Z" fill="#B7BFC7"/>
<path d="M62.8645 2.86116C67.3346 1.7873 71.0213 5.27506 71.3532 5.51371L72.625 1.47526C70.8647 0.942915 58.0255 -3.38007 48.9563 6.92717C43.3802 13.2693 42.0162 26.2567 49.0854 29.7445C56.6524 33.4708 65.0119 29.1754 65.6756 28.8725L69.0858 17.9045C69.2625 17.2526 69.6046 16.6569 70.079 16.1748C70.5536 15.6926 71.1448 15.3401 71.7955 15.151H59.8137C60.355 15.2993 60.8155 15.6542 61.0951 16.139C61.3747 16.6237 61.4508 17.1989 61.3069 17.7392L57.8505 28.7072C57.3897 28.7899 47.712 31.1946 53.1316 14.3617C54.3204 10.7454 57.574 4.12778 62.892 2.85201L62.8645 2.86116Z" fill="#B7BFC7"/>
</g>
<defs>
<clipPath id="clip0_11_10126">
<rect width="72.6406" height="31.9965" fill="white" transform="translate(0.3125 0.00195312)"/>
</clipPath>
</defs>
</svg>
