<svg width="89" height="38" viewBox="0 0 89 38" fill="none" xmlns="http://www.w3.org/2000/svg">
<path fill-rule="evenodd" clip-rule="evenodd" d="M48.1313 0.667969V5.6363L41.9326 6.95795V1.96512L48.1313 0.667969ZM61.0234 8.40144C58.6031 8.40144 57.0472 9.52725 56.1828 10.3104L55.8618 8.79299H50.4287V37.3303L56.6027 36.0331L56.6274 29.1069C57.5164 29.7432 58.8254 30.6488 60.9986 30.6488C65.4193 30.6488 69.4447 27.1245 69.4447 19.3661C69.42 12.2684 65.3451 8.40144 61.0234 8.40144ZM59.5416 25.2644C58.0845 25.2644 57.2201 24.7504 56.6274 24.1141L56.6027 15.034C57.2448 14.3242 58.1339 13.8348 59.5416 13.8348C61.7889 13.8348 63.3447 16.3311 63.3447 19.5374C63.3447 22.8169 61.8136 25.2644 59.5416 25.2644ZM88.9065 19.6108C88.9065 13.3453 85.8441 8.40144 79.9911 8.40144C74.1134 8.40144 70.5571 13.3453 70.5571 19.5618C70.5571 26.9287 74.7555 30.6487 80.7813 30.6487C83.7202 30.6487 85.9429 29.988 87.6223 29.0579V24.1631C85.9429 24.9952 84.0166 25.5091 81.5717 25.5091C79.1761 25.5091 77.0522 24.677 76.7806 21.789H88.8571C88.8571 21.6549 88.8659 21.3512 88.8759 21.0007L88.8761 20.9952V20.994C88.89 20.5146 88.9065 19.9488 88.9065 19.6108ZM76.7065 17.2856C76.7065 14.52 78.4106 13.3697 79.9664 13.3697C81.4729 13.3697 83.0782 14.52 83.0782 17.2856H76.7065ZM48.1313 8.81673H41.9326V30.232H48.1313V8.81673ZM34.897 8.81911L35.2921 10.6302C36.7492 7.98697 39.6387 8.52545 40.429 8.81911V14.4483C39.6634 14.1791 37.1937 13.8364 35.7367 15.7209V30.2343H29.5626V8.81911H34.897ZM22.9424 3.50716L16.9166 4.77983L16.8919 24.3839C16.8919 28.0061 19.6332 30.6738 23.2882 30.6738C25.3133 30.6738 26.7951 30.3067 27.6101 29.8662V24.8979C26.8197 25.2161 22.9178 26.3419 22.9178 22.7197V14.0312H27.6101V8.81811H22.9178L22.9424 3.50716ZM8.34732 13.7124C7.03842 13.7124 6.24814 14.0795 6.24814 15.034C6.24814 16.0762 7.60822 16.5346 9.2956 17.1033C12.0463 18.0305 15.6668 19.2509 15.6821 23.7714C15.6821 28.1524 12.1505 30.6733 7.01372 30.6733C4.88985 30.6733 2.56841 30.2572 0.271658 29.2782V23.4533C2.34614 24.5791 4.96394 25.4112 7.01372 25.4112C8.39671 25.4112 9.38459 25.0441 9.38459 23.9182C9.38459 22.7639 7.91021 22.2363 6.13026 21.5993C3.41952 20.6291 0 19.4053 0 15.3277C0 10.9958 3.33399 8.40144 8.34732 8.40144C10.3971 8.40144 12.4222 8.71958 14.472 9.52725V15.2788C12.595 14.2753 10.2243 13.7124 8.34732 13.7124Z" fill="#B7BFC7"/>
</svg>
