<svg width="170" height="44" viewBox="0 0 170 44" fill="none" xmlns="http://www.w3.org/2000/svg">
<g clip-path="url(#clip0_11_10121)">
<path d="M108.178 15.5028C107.212 15.7593 106.343 15.9142 105.262 16.0296V16.3582C106.478 16.3582 106.633 16.4942 106.633 17.4993V20.8781C105.918 19.7193 105.358 19.3724 104.316 19.3724C102.25 19.3724 100.803 21.3221 100.803 24.1038C100.803 26.8855 102.27 28.8369 104.374 28.8369C105.475 28.8369 106.227 28.3357 106.767 27.254C106.845 27.9872 106.846 28.0643 107.039 28.7986C107.83 28.5472 108.158 28.4695 109.298 28.3346L109.586 28.2952V27.9672C108.293 27.9289 108.178 27.8317 108.178 26.654V15.5028ZM56.0868 15.6433C55.478 15.7141 54.8654 15.7467 54.2525 15.741C53.7114 15.741 53.4223 15.7222 52.6703 15.6639V16.145C54.0017 16.2228 54.2714 16.4159 54.2714 17.305V17.4216L53.8657 26.9049C53.8274 27.9483 53.6354 28.102 52.284 28.1992V28.6632C53.2886 28.5855 53.6726 28.5666 54.2131 28.5666C54.7543 28.5666 55.1394 28.5855 56.1251 28.6632V28.1992C54.7731 28.102 54.5223 27.9283 54.5223 27.0786V26.9049L54.9085 16.8805L58.0742 25.4375L58.3062 26.1129L58.5776 26.8655L58.8473 27.6197L59.0605 28.2386H59.3508L59.5616 27.6009L59.8125 26.8655L60.0822 26.1523L60.3142 25.5129L63.5004 16.8993L63.6741 26.9049V27.0015C63.6741 27.9095 63.385 28.1215 62.0713 28.1992V28.6632C63.2879 28.5472 63.7507 28.5089 64.485 28.5089C65.2175 28.5089 65.6815 28.5472 66.8981 28.6632V28.1992C65.5078 28.102 65.3335 27.9483 65.3147 26.9049L65.1033 17.4216V17.2862C65.1033 16.4165 65.3924 16.2233 66.7055 16.145V15.6639C65.9718 15.7222 65.6627 15.741 65.1804 15.741C64.601 15.741 64.1964 15.721 63.3273 15.6433L59.6788 25.4181L56.0868 15.6433ZM131.186 15.7205V16.205C132.576 16.2816 132.77 16.4353 132.77 17.4787V26.846C132.77 27.8895 132.616 28.0237 131.186 28.1403V28.6043H136.071C137.499 28.6043 138.272 28.4306 139.082 27.9289C140.049 27.3106 140.685 26.1312 140.685 24.9141C140.685 23.8718 140.241 22.9261 139.488 22.3467C139.082 22.0381 138.657 21.8633 137.962 21.7278C139.353 21.2067 140.087 20.2216 140.087 18.8701C140.087 17.8644 139.662 16.9753 138.928 16.4159C138.271 15.933 137.518 15.7199 136.263 15.7199L131.186 15.7205ZM134.391 16.3205H136.032C137.654 16.3205 138.368 17.1113 138.368 18.9084C138.368 19.7964 138.157 20.4341 137.732 20.9364C137.307 21.4193 136.786 21.5741 135.703 21.5741H134.391V16.3205ZM89.9892 19.0821L89.4669 20.0667C88.8492 19.4679 88.3281 19.2553 87.4984 19.2553C85.2201 19.2553 83.675 21.2267 83.675 24.1038C83.675 26.9238 85.2007 28.818 87.4401 28.818C89.1784 28.818 90.2778 27.6963 90.5286 25.6295H89.7366C89.5052 27.3295 88.7904 28.1803 87.5927 28.1803C86.107 28.1803 85.3544 26.8089 85.3544 24.1038C85.3544 21.3415 86.2053 19.7781 87.6527 19.7781C88.8309 19.7781 89.5441 20.5884 89.8909 22.2684H90.3172V19.0821H89.9892ZM124.582 19.1404L124.254 19.9313C123.597 19.4879 123.038 19.3141 122.285 19.3141C120.586 19.3141 119.389 20.357 119.389 21.8833C119.389 23.0032 119.835 23.5438 121.243 24.2015L122.131 24.6055L122.864 24.9341C123.81 25.3592 124.178 25.8032 124.178 26.4598C124.178 27.4455 123.328 28.1992 122.189 28.1992C120.837 28.1992 120.026 27.3495 119.678 25.5918L119.255 25.6106V28.8369H119.602L120.064 27.9672C120.798 28.5466 121.493 28.7786 122.381 28.7786C124.197 28.7786 125.49 27.6209 125.49 25.9975C125.49 24.8581 124.968 24.2392 123.501 23.6021L122.69 23.2547C120.933 22.4821 120.645 22.2318 120.645 21.4587C120.645 20.5507 121.436 19.8553 122.458 19.8553C123.675 19.8553 124.312 20.5896 124.485 22.1341H124.93V19.1399L124.582 19.1404ZM153.121 19.1404C152.351 19.4113 151.692 19.565 150.572 19.7199V20.0478C150.669 20.0478 150.767 20.0667 150.824 20.0667C151.79 20.0667 151.904 20.1838 151.924 20.9753V27.2335C151.924 28.0637 151.732 28.2186 150.555 28.2763V28.6632C151.559 28.566 151.963 28.5477 152.638 28.5477C153.334 28.5477 153.72 28.566 154.725 28.6632V28.2763C153.72 28.238 153.47 28.0443 153.47 27.2729V22.5964C153.47 21.013 154.164 20.1838 155.477 20.1838C156.712 20.1838 157.214 20.8593 157.214 22.5398V27.2729C157.214 28.0443 156.963 28.238 155.92 28.2763V28.6632C156.924 28.566 157.31 28.5477 158.025 28.5477C158.719 28.5477 159.107 28.566 160.131 28.6632V28.2763C158.952 28.2192 158.758 28.0637 158.758 27.2335V22.5964C158.758 21.8633 158.662 21.3221 158.468 20.8593C158.083 19.9124 157.079 19.3141 155.92 19.3141C154.802 19.3141 154.009 19.7776 153.313 20.821C153.274 20.0867 153.218 19.585 153.121 19.1404ZM78.8197 19.1781C78.0271 19.4096 77.3711 19.5267 76.2705 19.6233V19.9707H76.5214C77.5248 19.9896 77.6225 20.0873 77.6414 20.9176V27.2335C77.6414 28.0637 77.43 28.2186 76.2517 28.2763V28.6632C77.314 28.566 77.7191 28.546 78.4145 28.546C79.0899 28.546 79.4956 28.566 80.5562 28.6632V28.2763C79.3791 28.2192 79.1859 28.0637 79.1859 27.2335V23.1964C79.1859 21.2833 79.8225 20.0684 80.8259 20.0684C81.1733 20.0684 81.4065 20.2598 81.4065 20.5313V20.7044L81.367 20.8987C81.3482 20.9764 81.3293 21.053 81.3293 21.0907C81.3293 21.4781 81.6768 21.7478 82.1213 21.7478C82.6036 21.7478 82.9322 21.3798 82.9322 20.8198C82.9322 19.8936 82.2173 19.2559 81.2522 19.2559C80.2488 19.2559 79.4174 19.8936 78.9934 20.9947V20.7816C78.9539 20.2021 78.9157 19.8936 78.8197 19.1781ZM71.5877 19.2559C69.2706 19.2559 67.8238 21.129 67.8238 24.1038C67.8238 27.078 69.2706 28.818 71.7609 28.818C73.6529 28.818 74.8883 27.6386 75.1397 25.6489H74.3683C74.1363 27.2912 73.2866 28.1803 71.9157 28.1803C70.1592 28.1803 69.3872 26.8289 69.3683 23.8147H75.1208C75.0826 20.8404 73.866 19.2559 71.5877 19.2559ZM95.6691 19.2559C93.352 19.2559 91.904 21.129 91.904 24.1038C91.904 27.078 93.352 28.818 95.8423 28.818C97.7343 28.818 98.9708 27.6386 99.2211 25.6489H98.4485C98.2171 27.2912 97.368 28.1803 95.9971 28.1803C94.2406 28.1803 93.4674 26.8289 93.448 23.8147H99.2022C99.1628 20.8404 97.9474 19.2559 95.6691 19.2559ZM114.083 19.2559C111.766 19.2559 110.318 21.129 110.318 24.1038C110.318 27.078 111.766 28.818 114.256 28.818C116.148 28.818 117.384 27.6386 117.635 25.6489H116.862C116.63 27.2912 115.782 28.1803 114.411 28.1803C112.655 28.1803 111.881 26.8289 111.862 23.8147H117.616C117.577 20.8404 116.36 19.2559 114.083 19.2559ZM146.018 19.2559C143.701 19.2559 142.253 21.129 142.253 24.1038C142.253 27.078 143.701 28.818 146.191 28.818C148.083 28.818 149.319 27.6386 149.57 25.6489H148.797C148.566 27.2912 147.718 28.1803 146.348 28.1803C144.59 28.1803 143.818 26.8289 143.799 23.8147H149.551C149.512 20.8404 148.296 19.2559 146.018 19.2559ZM161.537 19.4873L161.091 21.9987H161.479C162.174 20.2604 162.482 19.9896 163.738 19.9896H166.11L160.88 28.6049H167.52L168.024 25.8238H167.618C167.038 27.5815 166.498 28.1026 165.184 28.1026H162.927L168.178 19.4873H161.537ZM71.5689 19.7576C72.8237 19.7576 73.4603 20.8393 73.5769 23.1192H69.4061C69.5992 20.8981 70.3329 19.7576 71.5689 19.7576ZM95.6486 19.7576C96.9034 19.7576 97.5405 20.8393 97.6565 23.1192H93.4857C93.6789 20.8981 94.4126 19.7576 95.6486 19.7576ZM114.064 19.7576C115.319 19.7576 115.956 20.8393 116.072 23.1192H111.901C112.094 20.8981 112.828 19.7576 114.064 19.7576ZM145.999 19.7576C147.254 19.7576 147.891 20.8393 148.007 23.1192H143.837C144.029 20.8981 144.763 19.7576 145.999 19.7576ZM104.49 19.9119C105.918 19.9119 106.652 21.3815 106.652 24.2204C106.652 26.9055 105.938 28.2952 104.548 28.2952C103.158 28.2952 102.425 26.8472 102.425 24.0849C102.425 21.2838 103.099 19.9119 104.49 19.9119ZM134.391 22.1735H136.226C137.249 22.1735 137.827 22.3461 138.271 22.7907C138.716 23.2352 138.966 24.0649 138.966 24.9924C138.966 26.9238 138.001 28.0066 136.282 28.0066H135.589C134.565 28.0066 134.391 27.8506 134.391 27.0009V22.1735ZM126.648 22.9392V23.9381H130.962V22.9392H126.648ZM22.397 8.31029C22.397 8.03315 22.313 8.02401 22.2907 8.3L21.4073 21.4747L22.2861 21.989L22.397 8.31029ZM18.2736 24.5524L21.9821 22.497L21.1398 22.0284L18.1696 24.4604C18.0039 24.6026 18.0782 24.6615 18.2736 24.5524Z" fill="#B7BFC7"/>
<path d="M22.4601 1.25391C10.7003 1.24819 1.16211 10.6938 1.16211 22.3348C1.16211 33.9758 10.6934 43.4116 22.4601 43.4156C34.2268 43.4191 43.7667 33.9758 43.7667 22.3348C43.7667 10.6932 34.2354 1.25391 22.4601 1.25391ZM22.4601 42.6128C14.4568 42.6128 8.17687 38.4506 5.18606 32.7272L5.64834 32.5575C6.42547 33.8255 7.44088 34.9403 8.80487 36.4472C10.486 38.2951 15.8025 41.8642 22.4561 41.8642C25.8144 41.8764 29.12 41.0296 32.0588 39.4043C34.9983 37.7785 37.4734 35.4283 39.249 32.5769C39.5176 32.5015 39.6033 32.3849 39.5142 32.1512C41.1136 29.3324 42.1999 25.7913 42.1999 22.3308C42.1999 20.1514 41.8799 18.3783 41.373 16.7937C41.0594 15.8176 40.6775 14.8648 40.2302 13.9423C40.1796 13.8609 40.1534 13.7667 40.1547 13.6709C40.2353 13.732 40.3004 13.8115 40.3444 13.9023C40.6536 14.4669 41.3462 15.8497 41.6713 16.7497C42.1101 17.9508 42.8918 19.6137 42.8918 22.3308C42.8964 33.4221 33.8148 42.6191 22.4601 42.6128ZM5.40548 32.2369L20.3213 21.5108L19.0453 20.7828L5.75633 31.8341C4.26378 29.1284 3.22722 25.6542 3.22722 22.3502C3.22722 11.8875 11.5528 3.41674 22.0944 3.35217L19.375 20.2737L20.6459 21.0125L22.3544 3.35502C22.3864 3.13217 22.539 3.13217 22.539 3.35502L22.6395 21.9753L25.6664 20.1977L22.7658 3.34817C33.1268 3.62531 41.7107 11.9858 41.7107 22.3171C41.7107 25.6484 40.705 29.1284 39.181 31.8512L25.9058 20.7885L24.6275 21.5188L38.8959 31.8712C39.2388 32.1152 39.1336 32.2261 38.769 32.0226L22.7464 22.7782V26.2427L38.8056 32.3815C35.4399 37.8729 29.3692 41.386 22.419 41.386C15.4534 41.386 9.48028 37.8746 6.11462 32.3746L22.2024 26.2319V22.7679L5.54205 32.3964C5.14663 32.6141 5.04206 32.4924 5.40548 32.2369ZM4.9952 32.4426C4.29064 30.9815 3.54836 28.9227 3.24094 27.2941C3.22608 27.2084 3.22951 27.1204 3.25237 27.037C3.3038 27.1136 3.34265 27.1981 3.36951 27.2867C3.85236 28.7815 4.27407 30.1261 5.37577 32.1455L4.9952 32.4426ZM42.8616 18.7582C42.8108 18.6847 42.7716 18.6037 42.7456 18.5183C41.1884 13.7137 39.8622 11.8263 37.3062 9.01952C33.9382 5.32357 28.4412 2.46589 22.5904 2.45961C11.4077 2.45846 2.33581 11.5372 2.33581 22.7245C2.33581 26.0502 3.06094 28.9233 3.64379 30.3661C4.32664 32.0392 5.50891 34.2929 5.56777 34.3946C5.60948 34.4775 5.63062 34.5695 5.63062 34.6626C5.55382 34.6012 5.48911 34.526 5.43977 34.4409C5.10091 33.9483 3.71179 31.4455 3.28151 30.3512C2.33581 27.9707 1.64153 25.3736 1.64153 22.6479C1.64153 11.1178 10.9683 1.76762 22.5007 1.76762C32.8028 1.76762 41.1079 8.92752 42.8616 18.5114C42.8787 18.5931 42.8787 18.6771 42.8616 18.7582Z" fill="#B7BFC7"/>
<path d="M34.8222 29.3499L23.8423 21.9883L22.9395 22.5043L34.7696 29.4339C34.9799 29.555 35.0244 29.4796 34.8222 29.3499Z" fill="#B7BFC7"/>
</g>
<defs>
<clipPath id="clip0_11_10121">
<rect width="169.141" height="43.9994" fill="white" transform="translate(0.453125)"/>
</clipPath>
</defs>
</svg>
