<svg width="164" height="32" viewBox="0 0 164 32" fill="none" xmlns="http://www.w3.org/2000/svg">
<g clip-path="url(#clip0_11_10131)">
<path d="M97.5787 9.468V6.14453H85.7227V23.2441H97.5787V19.7759H90.5227V15.9854H96.391V12.666H90.5227V9.468H97.5787Z" fill="#B7BFC7"/>
<path d="M118.485 19.8679H111.078V6.14258H106.219V23.2421H118.485V19.8679Z" fill="#B7BFC7"/>
<path d="M157.621 12.6612C154.342 11.9225 153.194 11.8368 153.194 10.5324C153.194 9.32189 154.819 8.94538 155.753 8.94538C157.265 8.94538 159.05 9.29789 160.869 10.2306L162.193 7.08407C160.328 6.06768 157.936 5.64453 155.635 5.64453C151.113 5.64453 148.079 7.4791 147.952 11.0556C147.823 14.3174 150.475 15.5375 152.912 16.0409C155.261 16.5264 157.645 16.942 157.693 18.3377C157.736 19.6249 156.579 20.1763 154.394 20.1763C152.372 20.1763 150.491 19.5262 148.569 18.7211L147.445 22.1413C149.655 23.0808 151.898 23.5986 154.21 23.5986C157.422 23.5986 159.766 23.0972 161.491 21.4774C162.688 20.365 163.079 19.0221 163.079 17.7403C163.082 15.0376 161.397 13.515 157.621 12.6612Z" fill="#B7BFC7"/>
<path d="M78.8305 9.52013V6.14453H63.918V9.52013H68.956V23.2441H73.7863V9.52013H78.8305Z" fill="#B7BFC7"/>
<path d="M135.063 6.14453V17.0086C135.063 17.8597 135.063 18.0949 135.012 18.4262C134.856 19.4618 133.853 20.0626 132.253 20.0838C131.067 20.0646 130.2 19.7142 129.795 19.0948C129.592 18.7766 129.493 18.2046 129.493 17.2912V6.14453H124.453V17.929C124.453 19.5619 124.671 20.2992 125.409 21.2312C126.625 22.7516 128.997 23.5513 132.262 23.5513C132.299 23.5513 132.331 23.5513 132.37 23.5513C132.387 23.5513 132.417 23.5513 132.441 23.5513C136.814 23.5513 139.071 21.8464 139.724 20.2512C140.05 19.4776 140.074 19.1113 140.074 17.5504V6.14453H135.063Z" fill="#B7BFC7"/>
<path d="M66.1942 1.4607L37.9336 7.08717V9.05821L38.0235 9.0349C56.6928 4.49682 66.1935 1.76727 66.2703 1.74806C66.3759 1.72062 66.413 1.63833 66.3986 1.56906C66.3828 1.49637 66.3066 1.43601 66.1942 1.4607Z" fill="#B7BFC7"/>
<path d="M43.2156 0.923258C41.8419 1.00144 39.2983 3.03627 37.9019 4.24468C32.3419 9.05502 28.2078 13.4765 25.2019 18.1071C18.9356 21.4635 10.9451 24.9153 3.0129 27.6092L2.82156 27.6736L1.29492 31.7844L2.1666 31.4477C7.21286 29.5247 15.6354 25.9132 23.2706 21.8984C22.8407 23.0451 22.6239 24.0992 22.6239 25.06C22.6239 25.7766 22.7439 26.4433 22.9833 27.0488C23.4634 28.2586 24.4098 29.1749 25.7218 29.6954C27.6756 30.4752 30.3414 30.4896 33.3831 29.5686C41.1534 27.2134 50.3701 19.9822 52.3768 18.544L52.4536 18.4899C52.5325 18.4329 52.538 18.3472 52.5051 18.2889C52.4611 18.2224 52.3686 18.2045 52.2925 18.2512L52.1937 18.3109C50.0402 19.6036 39.576 25.8164 32.774 27.6407C29.3093 28.57 26.6689 28.0625 25.673 26.6697C25.3274 26.1936 25.1608 25.5915 25.1608 24.8893C25.1608 23.5182 25.8061 21.7729 27.0488 19.8327C28.1928 19.1819 29.2613 18.5454 30.2242 17.9405C36.8601 14.211 44.5056 6.95984 44.8321 2.53356C44.8335 2.50339 44.8335 2.46841 44.8335 2.43549C44.8335 2.05349 44.6683 1.66052 44.3781 1.37041C44.0668 1.05288 43.6567 0.894454 43.2156 0.923258ZM42.4757 3.03284C42.9111 2.75097 43.0367 2.92722 42.9084 3.24545C42.7013 3.75364 41.7432 6.81102 34.6292 12.6515C32.7727 14.172 31.4525 15.0257 28.7792 16.6086C33.1568 10.474 39.5479 4.93394 42.4757 3.03284Z" fill="#B7BFC7"/>
<path d="M37.8407 7.10742L8.10763 13.4985L6.96094 16.5909L37.9332 9.05926L38.8913 8.51816L38.8646 7.11086L37.8407 7.10742Z" fill="#B7BFC7"/>
</g>
<defs>
<clipPath id="clip0_11_10131">
<rect width="162.812" height="31.9978" fill="white" transform="translate(0.671875 0.00195312)"/>
</clipPath>
</defs>
</svg>
