<svg width="132" height="34" viewBox="0 0 132 34" fill="none" xmlns="http://www.w3.org/2000/svg">
<path fill-rule="evenodd" clip-rule="evenodd" d="M0.625 12.6003C0.625 6.30025 5.21355 0.5 13.9099 0.5C20.8802 0.5 26.299 5.4531 26.3209 12.0789C26.3209 18.9871 21.9508 24.5267 15.8765 24.5267C13.8444 24.5267 11.9216 23.4622 11.2661 22.224C11.2661 22.224 10.2609 26.0474 10.0206 26.9815C9.34325 29.5666 6.93972 33.1511 6.74307 33.4118C6.72121 33.4552 6.65566 33.4987 6.59012 33.4987C6.48086 33.4987 6.37161 33.4118 6.37161 33.3032C6.30606 32.9339 5.60686 28.6325 6.21866 25.9822C6.59012 24.4181 8.57849 16.0327 8.57849 16.0327C8.16334 15.0985 7.94483 14.0775 7.96668 13.0565C7.96668 10.2758 9.5836 8.19025 11.6157 8.19025C13.32 8.19025 14.1503 9.47198 14.1503 11.0144C14.1503 12.0763 13.732 13.4625 13.2889 14.9312C13.0159 15.8362 12.7334 16.7726 12.5333 17.6836C12.0527 19.6605 13.5385 21.2898 15.5051 21.2898C19.0666 21.2898 21.8197 17.5533 21.8197 12.144C21.8197 7.36474 18.3674 4.01927 13.4293 4.01927C7.70448 4.01927 4.33954 8.27715 4.33954 12.6871C4.33954 14.4034 4.99505 16.2499 5.82536 17.2492C5.95646 17.4229 6.02201 17.6402 5.95646 17.8357C5.87703 18.1629 5.74456 18.6834 5.62639 19.1477C5.51701 19.5775 5.41986 19.9592 5.38835 20.095C5.30095 20.4643 5.1043 20.5295 4.711 20.3557C2.19822 19.1826 0.625 15.533 0.625 12.6003ZM69.1494 16.2057C70.5478 16.2057 71.0286 17.053 71.0286 18.0523C71.0286 19.7467 69.7175 20.7677 67.6417 20.7677C66.8333 20.746 66.0249 20.6156 65.26 20.3984C65.5223 18.8343 66.5274 16.2057 69.1494 16.2057ZM98.9748 16.2057C100.242 16.2057 100.854 17.053 100.854 18.0523C100.854 19.7467 99.5431 20.7677 97.4669 20.7677C96.6585 20.746 95.85 20.6156 95.0855 20.3984C95.3477 18.8343 96.4843 16.2057 98.9748 16.2057ZM127.249 16.3361H130.418C130.854 16.3361 131.116 16.1623 131.204 15.7495C131.259 15.5361 131.327 15.2653 131.394 14.9945C131.511 14.5208 131.629 14.0471 131.685 13.8812C131.772 13.5119 131.576 13.2512 131.16 13.2512H128.014C128.052 13.0964 128.111 12.8805 128.181 12.6195C128.517 11.3792 129.128 9.121 129.128 7.55961C129.128 3.7796 125.894 0.564448 121.306 0.564448C116.128 0.564448 112.763 4.01856 112.763 8.86297C112.785 10.3185 113.199 11.7306 113.964 12.9688C113.68 12.9471 113.396 12.9471 113.112 12.9471C109.179 12.9471 106.71 15.0761 106.71 18.1609C106.71 21.0501 109.005 22.1798 111.168 22.9401C111.462 23.0431 111.753 23.1376 112.033 23.2289C113.59 23.7346 114.86 24.147 114.86 25.4167C114.86 26.416 113.898 27.0025 111.976 27.0025C109.725 27.0025 108.48 25.938 108.152 25.547C108.501 25.2429 108.698 24.7867 108.676 24.3087C108.676 23.3746 108.021 22.636 106.797 22.636C105.771 22.636 104.896 23.4615 104.678 24.5694C103.017 25.9163 101.226 26.7853 98.6695 26.7853C96.1341 26.7853 94.8454 25.4818 94.8454 22.7012C95.4357 22.8749 96.9866 23.0922 97.9922 23.0922C102.253 23.0922 105.158 21.1587 105.158 17.2919C105.158 15.2064 103.323 13.034 99.6962 13.034H99.6742C94.9104 13.034 92.2233 16.0319 91.0652 19.3556C90.9014 19.3122 90.7375 19.2742 90.5736 19.2362C90.4097 19.1982 90.2458 19.1601 90.0819 19.1167C90.3879 18.3129 90.5408 17.444 90.5408 16.5968C90.5408 14.9675 89.5139 13.034 86.8044 13.034C84.9034 13.034 83.1117 14.2723 81.8662 16.1188C82.0055 15.5651 82.1267 15.1014 82.2173 14.7542C82.3258 14.3388 82.3906 14.0905 82.3906 14.055C82.4781 13.7292 82.3469 13.3816 81.8444 13.3816H79.0476C78.6543 13.3816 78.3702 13.5119 78.261 13.9681C78.1954 14.2723 77.234 18.0306 76.2944 21.6584C75.7045 23.9394 72.6673 26.7636 68.8435 26.7636C66.3307 26.7636 65.0197 25.3732 65.0197 22.5925C65.6753 22.8532 67.1392 23.0705 68.1661 23.0705C72.6018 23.0705 75.3549 21.137 75.3549 17.2702C75.3549 15.1847 73.5195 13.0123 69.8923 13.0123H69.8705C64.4953 13.0123 61.2178 17.1616 60.6496 21.8756C60.4093 23.8308 58.7487 26.5246 56.957 26.5246C56.083 26.5246 55.5804 25.9815 55.5804 25.0474C55.5804 24.4126 55.9347 23.0599 56.3958 21.2995C56.5186 20.8307 56.6489 20.3327 56.7822 19.8118C56.9233 19.2789 57.1007 18.5648 57.3029 17.7514C57.4139 17.3052 57.5324 16.8285 57.6562 16.3361H60.5841C61.0212 16.3361 61.2615 16.1623 61.3708 15.7495C61.5018 15.163 61.764 14.1419 61.8514 13.8812C61.9388 13.5119 61.7422 13.2512 61.327 13.2512H58.4428C58.4428 13.2512 59.7538 8.01573 59.7975 7.86366C59.9286 7.32064 59.4698 7.01651 59.0109 7.12513C59.0109 7.12513 56.7822 7.55952 56.3671 7.64642C55.9518 7.73331 55.6241 7.97228 55.4711 8.55883L54.2913 13.273H51.9969C51.56 13.273 51.2977 13.4468 51.2104 13.8595C51.1548 14.0725 51.0877 14.3429 51.0206 14.6134L51.0204 14.6143C50.9028 15.0881 50.7852 15.5619 50.7297 15.7278C50.6422 16.0971 50.839 16.3578 51.2541 16.3578H53.5046C53.4828 16.423 52.6961 19.4425 52.0407 22.158C51.7348 23.4615 50.7078 26.5246 49.0472 26.5246C48.042 26.5246 47.6269 26.0249 47.6269 24.9387C47.6269 24.1171 48.0225 22.6977 48.4301 21.2355C48.8631 19.6824 49.3094 18.0811 49.3094 17.0964C49.3094 14.533 47.9329 13.034 45.0923 13.034C43.3006 13.034 41.4433 14.1854 40.6567 15.1847C40.6567 15.1847 40.8971 14.3592 40.9844 14.0333C41.0719 13.7726 40.9189 13.4902 40.6567 13.4033C40.5911 13.3816 40.5038 13.3816 40.4382 13.3816H37.685C37.0951 13.3816 36.9421 13.7074 36.8548 14.0333C36.8311 14.1037 36.5334 15.2771 36.113 16.9337C35.7552 18.3439 35.3085 20.1041 34.8664 21.8322C34.2109 24.4174 32.6158 26.568 30.9115 26.568C30.0375 26.568 29.6442 26.0249 29.6442 25.0908C29.6442 24.3865 30.0469 22.7815 30.5581 20.7436L30.5584 20.742C30.6306 20.4547 30.7048 20.1586 30.7804 19.8553C31.1832 18.2764 31.5556 16.8482 31.8276 15.8053C32.0719 14.8685 32.2352 14.2424 32.2662 14.0985C32.3536 13.7292 32.2007 13.425 31.72 13.425H28.9232C28.4206 13.425 28.2239 13.6857 28.1365 14.055C28.1365 14.055 27.3499 17.0095 26.5196 20.3115C26.4644 20.5272 26.4088 20.7432 26.3534 20.9586L26.3525 20.9623C25.7941 23.1323 25.2522 25.2388 25.2522 26.2856C25.2522 28.3277 26.17 29.87 28.7046 29.87C30.6493 29.87 32.2007 28.8925 33.3805 27.6325C33.3422 27.7801 33.307 27.9163 33.2753 28.0394C33.1622 28.4774 33.0917 28.75 33.0747 28.7839C32.9654 29.1749 33.0965 29.5225 33.5553 29.5225H36.4177C36.9203 29.5225 37.0951 29.3269 37.2044 28.8925C37.3136 28.458 39.433 20.1377 39.433 20.1377C40.0012 17.9002 41.3996 16.4012 43.3661 16.4012C44.3057 16.4012 45.0923 17.0095 45.0049 18.2043C44.9617 18.7196 44.6896 19.768 44.3765 20.975C43.8976 22.821 43.3224 25.0378 43.3224 26.2856C43.3224 27.8498 43.9123 29.87 46.8622 29.87C48.8724 29.87 50.3801 28.9143 51.4507 27.6543C51.844 28.9794 52.8928 29.87 54.8157 29.87C58.0058 29.87 59.9286 27.9801 61.0648 26.0901C62.0044 28.2843 64.2112 29.87 67.4233 29.87C70.3074 29.8917 73.0825 28.7187 75.049 26.6115C74.8932 27.2105 74.7621 27.7211 74.665 28.099C74.558 28.516 74.4923 28.7714 74.4809 28.8056C74.3716 29.1967 74.5464 29.5225 75.0272 29.5225H77.8458C78.2172 29.5443 78.545 29.2835 78.6106 28.9143C78.6293 28.8303 78.7165 28.4941 78.8549 27.9607C79.0389 27.2516 79.3133 26.194 79.6376 24.917C80.7519 20.6591 82.5217 16.2274 85.1875 16.2274C86.127 16.2274 86.5203 16.7488 86.5203 17.5743C86.5203 17.8785 86.4548 18.2043 86.3018 18.4867C85.0127 18.2261 83.9639 18.856 83.9639 20.2246C83.9639 21.1153 84.9253 21.9408 86.1926 21.9408C87.1759 21.9408 87.9843 21.7018 88.618 21.2674C88.8479 21.3181 89.0876 21.3689 89.3335 21.421C89.7185 21.5026 90.119 21.5874 90.519 21.6801C90.4315 22.2884 90.366 22.9184 90.366 23.5484C90.366 26.9808 92.9443 29.8917 97.3578 29.8917C100.811 29.8917 103.039 28.7405 105.115 27.0243C106.098 28.6318 108.589 29.9135 111.845 29.9135C116.302 29.9135 118.858 27.6108 118.858 24.5477C118.858 21.7887 116.564 20.7677 114.227 19.9205C113.993 19.8361 113.765 19.7566 113.543 19.6795C111.94 19.1213 110.709 18.6925 110.709 17.5092C110.709 16.4012 111.583 15.9016 113.068 15.9016C113.767 15.9016 114.489 16.0102 115.166 16.2274C115.559 17.1833 116.346 18.2477 117.701 18.2477C118.858 18.2477 119.362 17.3354 119.362 16.5099C119.362 15.5505 118.709 14.937 117.932 14.2072C116.791 13.1356 115.384 11.813 115.384 8.77607C115.384 5.60444 117.198 2.99753 120.934 2.99753C123.535 2.99753 125.239 4.62685 125.239 7.27711C125.239 9.44952 123.906 13.3381 123.906 13.3381H121.656C121.219 13.3381 120.956 13.5119 120.868 13.9247C120.813 14.1377 120.747 14.4081 120.68 14.6785L120.679 14.6796C120.561 15.1532 120.444 15.6271 120.388 15.793C120.301 16.1623 120.497 16.423 120.912 16.423H123.12C123.12 16.423 120.847 24.7867 120.847 26.3074C120.847 28.3494 122.005 29.8917 124.54 29.8917C128.124 29.8917 130.374 27.5891 131.335 24.2218C131.401 24.048 131.335 23.8525 131.16 23.7656C131.116 23.7439 131.051 23.7439 131.007 23.7439H129.631C129.39 23.7439 129.172 23.9177 129.128 24.1567C128.822 25.3515 128.058 26.6115 126.55 26.6115C125.676 26.6115 125.173 26.0684 125.173 25.1343C125.173 24.4239 125.583 22.8819 126.146 20.7634C126.22 20.4849 126.297 20.1965 126.376 19.8987C126.703 18.5953 127.249 16.3361 127.249 16.3361ZM33.8155 8.99386C33.7062 10.4711 32.4826 11.6442 31.0624 11.6442C29.6421 11.6442 28.5714 10.4494 28.6588 8.99386C28.7681 7.51662 29.9917 6.34352 31.412 6.34352C32.8322 6.34352 33.9029 7.53835 33.8155 8.99386Z" fill="#B7BFC7"/>
</svg>
