<svg width="22" height="28" viewBox="0 0 22 28" fill="none" xmlns="http://www.w3.org/2000/svg">
<path d="M8.00187 27.8253C8.55873 27.8255 9.09651 27.5953 9.51421 27.178C9.93192 26.7606 10.2008 26.1848 10.2704 25.5586C10.2899 25.3812 10.1596 25.2348 10.0019 25.2348H6.00188C5.84417 25.2348 5.71388 25.3812 5.73331 25.5586C5.80292 26.1848 6.07182 26.7606 6.48953 27.178C6.90724 27.5953 7.44501 27.8255 8.00187 27.8253ZM2.28761 13.5777C2.28761 11.8601 2.88965 10.2129 3.96128 8.99839C5.03291 7.78387 6.48636 7.10156 8.00187 7.10156C9.51739 7.10156 10.9708 7.78387 12.0425 8.99839C13.1141 10.2129 13.7161 11.8601 13.7161 13.5777V17.3948C13.7161 17.4595 13.7333 17.5217 13.7641 17.5748L15.7104 20.8841C15.8839 21.1803 15.9833 21.5242 15.9981 21.8793C16.0129 22.2344 15.9425 22.5874 15.7945 22.9008C15.6464 23.2142 15.4262 23.4762 15.1572 23.6592C14.8883 23.8421 14.5806 23.939 14.267 23.9396H1.73676C1.42245 23.9404 1.11386 23.8444 0.844028 23.6617C0.5742 23.479 0.353303 23.2166 0.204998 22.9025C0.0566917 22.5885 -0.0134362 22.2346 0.00212512 21.8788C0.0176864 21.523 0.118351 21.1787 0.293336 20.8828L2.23961 17.5748C2.27067 17.5213 2.28735 17.4588 2.28761 17.3948V13.5777ZM8.00187 9.04441C6.94101 9.04441 5.9236 9.52203 5.17346 10.3722C4.42332 11.2223 4.00189 12.3754 4.00189 13.5777V17.3948C4.00189 17.8429 3.88532 18.2794 3.66589 18.6511L1.71962 21.9618C1.7173 21.9656 1.7161 21.9701 1.71619 21.9747L1.71733 21.9825C1.71733 21.9851 1.71962 21.9877 1.7219 21.9903L1.72876 21.9954L1.73676 21.9967H14.267L14.275 21.9954L14.2818 21.9903L14.2864 21.9825L14.2876 21.9734C14.2876 21.9688 14.2864 21.9643 14.2841 21.9605L12.3379 18.6524C12.1186 18.2806 12.0017 17.8433 12.0019 17.3961V13.5777C12.0019 12.3754 11.5804 11.2223 10.8303 10.3722C10.0801 9.52203 9.06273 9.04441 8.00187 9.04441Z" fill="#F0F6FC"/>
<rect x="8" y="1" width="13" height="13" rx="6.5" fill="url(#paint0_linear_423_153)" stroke="#161B22" stroke-width="2"/>
<defs>
<linearGradient id="paint0_linear_423_153" x1="14.5" y1="2" x2="14.5" y2="13" gradientUnits="userSpaceOnUse">
<stop stop-color="#54A3FF"/>
<stop offset="1" stop-color="#006EED"/>
</linearGradient>
</defs>
</svg>
