<svg width="48" height="48" viewBox="0 0 48 48" fill="none" xmlns="http://www.w3.org/2000/svg">
<path d="M24 4C28.7739 4 33.3523 5.89642 36.7279 9.27208C40.1036 12.6477 42 17.2261 42 22V37C42.0007 38.4959 41.5222 39.9527 40.6347 41.1568C39.7471 42.3609 38.4971 43.249 37.068 43.6909C35.6389 44.1329 34.1058 44.1054 32.6935 43.6125C31.2811 43.1195 30.0638 42.1872 29.22 40.952C28.6975 41.8773 27.9386 42.6473 27.0209 43.183C26.1032 43.7187 25.0596 44.0011 23.997 44.0011C22.9344 44.0011 21.8908 43.7187 20.9731 43.183C20.0554 42.6473 19.2965 41.8773 18.774 40.952C17.948 42.1577 16.7654 43.0746 15.392 43.5742C14.0185 44.0738 12.5232 44.131 11.1156 43.7377C9.70801 43.3445 8.45882 42.5205 7.5432 41.3814C6.62758 40.2423 6.09145 38.8452 6.01 37.386L6 36.998V22C6 17.2261 7.89642 12.6477 11.2721 9.27208C14.6477 5.89642 19.2261 4 24 4ZM32 26H28C28.0046 27.038 27.6056 28.0371 26.8872 28.7863C26.1689 29.5355 25.1874 29.9761 24.1501 30.0151C23.1129 30.054 22.1011 29.6882 21.3286 28.995C20.556 28.3018 20.0832 27.3354 20.01 26.3L20 26H16L16.01 26.4C16.1126 28.4499 16.9992 30.382 18.4863 31.7966C19.9735 33.2112 21.9475 34.0001 24 34.0001C26.0525 34.0001 28.0265 33.2112 29.5137 31.7966C31.0008 30.382 31.8874 28.4499 31.99 26.4L32 26ZM24 14C22.9391 14 21.9217 14.4214 21.1716 15.1716C20.4214 15.9217 20 16.9391 20 18C20 19.0609 20.4214 20.0783 21.1716 20.8284C21.9217 21.5786 22.9391 22 24 22C25.0609 22 26.0783 21.5786 26.8284 20.8284C27.5786 20.0783 28 19.0609 28 18C28 16.9391 27.5786 15.9217 26.8284 15.1716C26.0783 14.4214 25.0609 14 24 14Z" fill="#58A6FF"/>
</svg>
