<svg width="108" height="44" viewBox="0 0 108 44" fill="none" xmlns="http://www.w3.org/2000/svg">
<path d="M106.879 32.8296H101.311L102.231 29.1574H91.0533L90.1373 32.8296H84.7396V32.0755C84.8228 31.6609 84.8948 31.2272 84.997 30.7634C85.9812 26.8047 88.5891 22.8912 93.1048 22.8912C94.8913 22.8912 96.6666 23.5698 96.4244 26.0318H103.067C103.328 24.8818 103.768 22.9251 102.515 21.1304C101.099 19.1773 98.245 18.3932 94.547 18.3932C91.8973 18.3932 88.063 18.8116 84.7396 20.9759V0.993123H106.879V32.8296ZM93.8126 38.2099C92.5858 38.444 91.3408 38.5702 90.0918 38.5869C86.901 38.5869 84.679 37.1089 84.6338 33.6629H94.9444L93.8126 38.2099ZM81.0566 20.0295V24.5916C79.6787 26.4875 78.6779 28.6285 78.1081 30.8993C77.941 31.5326 77.8233 32.1781 77.7561 32.8296H74.5045L77.2829 19.6864H67.9261L59.5382 32.8296H58.9175V1.00066H81.0453L81.0566 20.0295ZM68.6983 32.8296H65.3712L70.409 24.9346L68.6983 32.8296ZM55.2647 19.6562H49.7271L45.942 32.8296H40.0523C43.0464 31.7287 44.867 29.6211 45.431 26.4993C45.8928 24.0712 45.6733 22.4727 44.674 21.2774C43.1826 19.4978 40.1923 19.6486 37.5352 19.6486H33.1445V1.00066H55.2572L55.2647 19.6562ZM51.7257 32.8296L54.0572 24.5916L54.1368 32.8296H51.7257ZM35.6199 29.6965C35.4041 29.6965 35.1884 29.7267 34.9423 29.7267C34.6168 29.7267 34.367 29.7267 34.1286 29.7267H32.713L33.3677 27.3138L33.6743 26.1185L34.4314 23.3134H35.389H36.4867C38.3565 23.3134 39.5413 23.419 39.9729 24.0184C40.3021 24.4671 40.2605 25.2476 39.8707 26.4276C39.2045 28.4674 38.3565 29.5005 35.635 29.7078M29.4653 20.825L29.1208 21.9561L25.9527 32.4601L25.8278 32.8371H15.411L14.5972 31.1066L25.8278 19.6864H18.6132L9.83173 29.1121L12.6744 19.6864H7.35246V1.00066H29.4653V20.825ZM83.8994 0.152344V21.5715C83.1774 22.143 82.5121 22.7817 81.9121 23.4793V0.152344H58.0924V19.6562H56.1202V0.152344H32.2966V19.6864H30.3244V0.152344H6.50082V22.4349L0.421875 42.606H5.77028L8.45395 33.6667H9.21097L13.6585 42.606H20.1197L15.8161 33.6667H25.578L22.8715 42.606H28.712L31.3842 33.6892H32.6675V33.6667H45.6694L43.0918 42.5797H48.9815L51.4796 33.6667H54.1292L54.2012 42.5797H59.1446L64.8223 33.6667H68.5354L66.6203 42.5797H72.419L74.3116 33.6667H77.6653C77.5328 36.4303 78.2406 38.9451 80.0801 40.6266C82.3285 42.6853 85.7805 43.0773 88.3356 43.0773C91.9628 43.0339 95.574 42.5926 99.1043 41.7616L101.114 33.6667H107.734V0.152344H83.8994Z" fill="#B7BFC7"/>
</svg>
