<svg width="13" height="13" viewBox="0 0 13 13" fill="none" xmlns="http://www.w3.org/2000/svg">
<path d="M7.84475 0.890235L8.5415 1.40024C8.65625 1.48424 8.78975 1.53974 8.93 1.56149L9.7835 1.69274C10.2058 1.75766 10.5964 1.95556 10.8985 2.25769C11.2007 2.55982 11.3986 2.95042 11.4635 3.37274L11.594 4.22699C11.6157 4.36724 11.6712 4.50074 11.7552 4.61549L12.2652 5.31149C12.5184 5.65612 12.655 6.07259 12.655 6.50024C12.655 6.92788 12.5184 7.34435 12.2652 7.68898L11.7552 8.38498C11.6709 8.49956 11.6156 8.63286 11.594 8.77349L11.4627 9.62698C11.3979 10.0495 11.2 10.4404 10.8977 10.7427C10.5954 11.045 10.2046 11.2429 9.782 11.3077L8.9285 11.439C8.78784 11.4604 8.65451 11.5158 8.54 11.6002L7.844 12.1102C7.49937 12.3634 7.08289 12.5 6.65525 12.5C6.2276 12.5 5.81113 12.3634 5.4665 12.1102L4.7705 11.6002C4.65593 11.5159 4.52262 11.4606 4.382 11.439L3.5285 11.3077C3.10618 11.2428 2.71558 11.0449 2.41345 10.7428C2.11132 10.4407 1.91342 10.05 1.8485 9.62774L1.71725 8.77423C1.69579 8.63358 1.64045 8.50025 1.556 8.38574L1.046 7.68974C0.792796 7.34511 0.65625 6.92863 0.65625 6.50099C0.65625 6.07334 0.792796 5.65687 1.046 5.31224L1.556 4.61624C1.64 4.50149 1.6955 4.36799 1.71725 4.22774L1.8485 3.37274C1.91342 2.95042 2.11132 2.55982 2.41345 2.25769C2.71558 1.95556 3.10618 1.75766 3.5285 1.69274L4.38275 1.56149C4.523 1.53974 4.6565 1.48424 4.77125 1.40024L5.46725 0.890235C5.81188 0.637035 6.22835 0.500488 6.656 0.500488C7.08364 0.500488 7.50012 0.637035 7.84475 0.890235ZM6.13325 1.79624L5.438 2.30624C5.17701 2.49829 4.87332 2.62414 4.553 2.67299L3.70025 2.80349C3.51412 2.83198 3.34195 2.91915 3.2088 3.05229C3.07566 3.18544 2.98849 3.35761 2.96 3.54374L2.8295 4.39574C2.78045 4.71601 2.65462 5.01965 2.46275 5.28074L1.95275 5.97674C1.84171 6.12842 1.78186 6.31151 1.78186 6.49949C1.78186 6.68746 1.84171 6.87056 1.95275 7.02223L2.46275 7.71749C2.65475 7.97849 2.78075 8.28224 2.8295 8.60249L2.96 9.45523C3.0185 9.83698 3.3185 10.137 3.70025 10.1955L4.55225 10.326C4.87257 10.3748 5.17626 10.5007 5.43725 10.6927L6.13325 11.2027C6.44375 11.4315 6.8675 11.4315 7.17875 11.2027L7.874 10.6927C8.13498 10.5007 8.43867 10.3748 8.759 10.326L9.61175 10.1955C9.79783 10.1669 9.96994 10.0797 10.1031 9.94655C10.2362 9.81343 10.3234 9.64132 10.352 9.45523L10.4825 8.60324C10.5313 8.28291 10.6572 7.97922 10.8492 7.71824L11.3592 7.02223C11.4707 6.87074 11.5309 6.68758 11.5309 6.49949C11.5309 6.31139 11.4707 6.12823 11.3592 5.97674L10.8492 5.28149C10.6576 5.02027 10.5318 4.71668 10.4825 4.39649L10.352 3.54374C10.3235 3.35761 10.2363 3.18544 10.1032 3.05229C9.97004 2.91915 9.79787 2.83198 9.61175 2.80349L8.75975 2.67299C8.43948 2.62394 8.13583 2.4981 7.87475 2.30624L7.17875 1.79624C7.02725 1.68476 6.84409 1.62463 6.656 1.62463C6.46791 1.62463 6.28474 1.68476 6.13325 1.79624ZM9.116 5.58524L6.3035 8.39773C6.19803 8.50307 6.05506 8.56224 5.906 8.56224C5.75693 8.56224 5.61397 8.50307 5.5085 8.39773L4.196 7.08523C4.09669 6.97854 4.04261 6.8375 4.04513 6.69176C4.04765 6.54602 4.10656 6.40694 4.2095 6.30374C4.3127 6.2008 4.45179 6.14189 4.59752 6.13937C4.74326 6.13685 4.8843 6.19093 4.991 6.29024L5.906 7.20523L8.321 4.79024C8.42769 4.69093 8.56873 4.63685 8.71447 4.63937C8.86021 4.64189 8.99929 4.7008 9.1025 4.80374C9.20543 4.90694 9.26435 5.04602 9.26686 5.19176C9.26938 5.3375 9.2153 5.47854 9.116 5.58524Z" fill="#6E7681"/>
</svg>
